<svg xmlns="http://www.w3.org/2000/svg" xmlns:xlink="http://www.w3.org/1999/xlink" width="28" height="28" viewBox="0 0 28 28" fill="none"><path d="M10.9917 14.9291C10.1381 16.6373 8.43212 11.726 8.43212 11.726C8.43212 11.726 6.51391 14.9291 8.43212 17.9189C10.5199 21.1707 14.6158 21.122 16.3218 20.0538C18.2688 18.8353 19.946 16.2106 18.6668 13.2209C17.8144 11.726 17.601 9.80295 17.601 9.80295C16.9608 11.0845 16.7474 13.4342 15.895 13.2209C13.3032 12.5708 13.7634 6.38647 13.7634 6.38647C10.7783 9.1629 11.964 12.9803 10.9917 14.9291Z" stroke="rgba(212, 48, 48, 1)" stroke-width="1.5909830729166679"   ></path><path d="M28 14C28 21.732 21.732 28 14 28C6.26801 28 0 21.732 0 14C0 6.26801 6.26801 0 14 0C21.732 0 28 6.26801 28 14ZM3.08 14C3.08 20.0309 7.96905 24.92 14 24.92C20.0309 24.92 24.92 20.0309 24.92 14C24.92 7.96905 20.0309 3.08 14 3.08C7.96905 3.08 3.08 7.96905 3.08 14Z" fill-rule="evenodd"  fill="#D43030" ></path></svg>