<svg xmlns="http://www.w3.org/2000/svg" xmlns:xlink="http://www.w3.org/1999/xlink" width="37.3155517578125" height="37.3155517578125" viewBox="0 0 37.3155517578125 37.3155517578125" fill="none"><g filter="url(#filter_4_5422)"><path     fill="#A5D63F"  d="M25.3818 5.95067C27.8344 7.24842 29.8698 9.23458 31.2275 11.6803C32.8417 14.5883 33.3978 17.9661 32.8008 21.2382C32.2038 24.5102 30.4907 27.4741 27.9535 29.6247C25.4162 31.7753 22.2118 32.9796 18.8861 33.0324C15.5605 33.0852 12.3194 31.9833 9.71512 29.9143C7.11085 27.8454 5.30452 24.9375 4.60391 21.686C3.90331 18.4346 4.35176 15.0408 5.87288 12.083C7.15062 9.59837 9.11881 7.55049 11.525 6.17553C12.2833 5.74221 13.2272 6.11445 13.5742 6.91595L13.5742 6.91595C13.9212 7.71745 13.547 8.63837 12.8021 9.09444C11.058 10.1624 9.62999 11.6929 8.68556 13.5294C7.49909 15.8366 7.14929 18.4837 7.69577 21.0198C8.24224 23.5559 9.65118 25.8241 11.6825 27.4379C13.7138 29.0517 16.2419 29.9112 18.8359 29.87C21.4299 29.8288 23.9294 28.8894 25.9084 27.2119C27.8875 25.5345 29.2237 23.2227 29.6893 20.6705C30.155 18.1183 29.7213 15.4836 28.4621 13.2153C27.4611 11.412 25.9876 9.92902 24.2135 8.91712C23.4548 8.48441 23.0445 7.57254 23.3659 6.76043L23.3659 6.76043C23.6873 5.94832 24.6098 5.54218 25.3818 5.95067Z"></path></g><g filter="url(#filter_4_5423)"><rect  x="16.514892578125" y="0.8111572265625" width="3.833740234375" height="15.3348388671875" rx="1.9168701171875"    fill="#A5D63F" ></rect></g><defs><filter id="filter_4_5422" x="4.2813720703125" y="5.7899169921875" width="28.7529296875" height="27.2442626953125" filterUnits="userSpaceOnUse" color-interpolation-filters="sRGB"><feFlood flood-opacity="0" result="feFloodId_4_5422"/><feBlend mode="normal" in="SourceGraphic" in2="feFloodId_4_5422" result="shape_4_5422"/><feColorMatrix in="SourceAlpha" type="matrix" values="0 0 0 0 0 0 0 0 0 0 0 0 0 0 0 0 0 0 127 0" result="hardAlpha_4_5422"/><feOffset dx="0" dy="2"/><feGaussianBlur stdDeviation="2"/><feComposite in2="hardAlpha_4_5422" operator="arithmetic" k2="-1" k3="1"/><feColorMatrix type="matrix" values="0 0 0 0 0 0 0 0 0 0 0 0 0 0 0 0 0 0 0.25 0"/><feBlend mode="normal" in2="shape_4_5422" result="innerShadow_0_4_5422" /></filter><filter id="filter_4_5423" x="16.514892578125" y="0.8111572265625" width="3.833740234375" height="15.3348388671875" filterUnits="userSpaceOnUse" color-interpolation-filters="sRGB"><feFlood flood-opacity="0" result="feFloodId_4_5423"/><feBlend mode="normal" in="SourceGraphic" in2="feFloodId_4_5423" result="shape_4_5423"/><feColorMatrix in="SourceAlpha" type="matrix" values="0 0 0 0 0 0 0 0 0 0 0 0 0 0 0 0 0 0 127 0" result="hardAlpha_4_5423"/><feOffset dx="0" dy="2"/><feGaussianBlur stdDeviation="2"/><feComposite in2="hardAlpha_4_5423" operator="arithmetic" k2="-1" k3="1"/><feColorMatrix type="matrix" values="0 0 0 0 0 0 0 0 0 0 0 0 0 0 0 0 0 0 0.25 0"/><feBlend mode="normal" in2="shape_4_5423" result="innerShadow_0_4_5423" /></filter></defs></svg>