<svg xmlns="http://www.w3.org/2000/svg" xmlns:xlink="http://www.w3.org/1999/xlink" width="36.5859375" height="29.18505859375" viewBox="0 0 36.5859375 29.18505859375" fill="none"><path d="M16.7044 12.4695L5.1222 0.885747L5.12175 0.885297C3.23159 -1.00559 -4.95911e-05 0.333034 -4.95911e-05 3.00685L-4.95911e-05 26.1785C-4.95911e-05 28.8511 3.23243 30.1901 5.12175 28.3L5.1222 28.2996L16.7044 16.7158L16.706 16.7142C17.8782 15.5427 17.8782 13.6426 16.706 12.4711L16.7044 12.4695ZM24.1193 28.3032C22.2255 30.1887 19.0007 28.8508 19.0007 26.1785L19.0007 3.00685C19.0007 0.338855 22.2286 -1.00031 24.1193 0.882094L24.1225 0.885297L35.7052 12.4695L35.7068 12.4711C36.879 13.6426 36.879 15.5427 35.7068 16.7142L35.7052 16.7158L24.1225 28.3L24.1193 28.3032ZM23.0007 23.7647L23.0007 5.42058L32.1716 14.5927L23.0007 23.7647ZM13.1708 14.5927L3.99995 23.7647L3.99995 5.42058L13.1708 14.5927Z" fill-rule="evenodd"  fill="#FFFFFF" ></path></svg>