<svg xmlns="http://www.w3.org/2000/svg" xmlns:xlink="http://www.w3.org/1999/xlink" width="36.5859375" height="29.18505859375" viewBox="0 0 36.5859375 29.18505859375" fill="none"><path d="M19.8815 12.4695L31.4637 0.885747L31.4642 0.885297C33.3543 -1.00559 36.586 0.333034 36.586 3.00685L36.586 26.1785C36.586 28.8511 33.3535 30.1901 31.4642 28.3L31.4637 28.2996L19.8815 16.7158L19.8799 16.7142C18.7077 15.5427 18.7077 13.6426 19.8799 12.4711L19.8815 12.4695ZM12.4666 28.3032C14.3604 30.1887 17.5852 28.8508 17.5852 26.1785L17.5852 3.00685C17.5852 0.338855 14.3573 -1.00031 12.4666 0.882094L12.4634 0.885297L0.880721 12.4695L0.879164 12.4711C-0.293035 13.6426 -0.293035 15.5427 0.879163 16.7142L0.880721 16.7158L12.4634 28.3L12.4666 28.3032ZM13.5852 23.7647L13.5852 5.42058L4.41437 14.5927L13.5852 23.7647ZM23.4151 14.5927L32.586 23.7647L32.586 5.42058L23.4151 14.5927Z" fill-rule="evenodd"  fill="#FFFFFF" ></path></svg>