<svg xmlns="http://www.w3.org/2000/svg" xmlns:xlink="http://www.w3.org/1999/xlink" width="36" height="36" viewBox="0 0 36 36" fill="none"><path   fill="rgba(0, 0, 0, 1)"  d="M8.98352 28.5152L26.3567 17.5722L27.1561 18.8414L26.3567 17.5722C26.0453 17.7683 26.0453 18.2224 26.3568 18.4184L27.1558 17.1489L26.3568 18.4184L8.98367 7.48412L9.78266 6.21462L8.98367 7.48412C9.31664 7.69368 9.75 7.45437 9.75 7.06095L9.75 7.06095L9.75 28.9383L8.25 28.9383L9.75 28.9383C9.75 28.5448 9.31647 28.3055 8.98352 28.5152L9.78297 29.7844L8.98352 28.5152ZM10.5824 31.0536L10.5824 31.0536C8.91762 32.1022 6.75 30.9058 6.75 28.9383L6.75 28.9383L6.75 7.06095L8.25 7.06095L6.75 7.06095C6.75 5.09383 8.91682 3.89732 10.5817 4.94513L10.5817 4.94513L27.9548 15.8794L27.9548 15.8794C29.5123 16.8596 29.5127 19.1298 27.9556 20.1106L27.9556 20.1106L10.5824 31.0536Z"></path></svg>