<svg xmlns="http://www.w3.org/2000/svg" xmlns:xlink="http://www.w3.org/1999/xlink" width="68" height="68" viewBox="0 0 68 68" fill="none"><circle cx="34" cy="34" r="34"   fill="#FFFFFF" ></circle><path   fill="rgba(0, 0, 0, 1)"  d="M26.9835 44.5152L44.3567 33.5722L45.1561 34.8414L44.3567 33.5722C44.0453 33.7683 44.0453 34.2224 44.3568 34.4184L45.1558 33.1489L44.3568 34.4184L26.9837 23.4841L27.7827 22.2146L26.9837 23.4841C27.3166 23.6937 27.75 23.4544 27.75 23.061L27.75 23.061L27.75 44.9383L26.25 44.9383L27.75 44.9383C27.75 44.5448 27.3165 44.3055 26.9835 44.5152L27.783 45.7844L26.9835 44.5152ZM28.5824 47.0536L28.5824 47.0536C26.9176 48.1022 24.75 46.9058 24.75 44.9383L24.75 44.9383L24.75 23.061L26.25 23.061L24.75 23.061C24.75 21.0938 26.9168 19.8973 28.5817 20.9451L28.5817 20.9451L45.9548 31.8794L45.9548 31.8794C47.5123 32.8596 47.5127 35.1298 45.9556 36.1106L45.9556 36.1106L28.5824 47.0536Z"></path></svg>