<svg xmlns="http://www.w3.org/2000/svg" xmlns:xlink="http://www.w3.org/1999/xlink" width="39" height="39" viewBox="0 0 39 39" fill="none"><g filter="url(#filter_3_21)"><circle transform="matrix(-1, 0, 0, 1, 35, 2)" cx="15.5" cy="15.5" r="15.5"   fill="url(#linear_fill_3_21)" ></circle></g><path   fill="rgba(255, 255, 255, 1)"  d="M13.2705 14.1452M13.2705 14.1452Q13.2705 12.9585 13.7743 11.876Q14.2559 10.8412 15.1282 10.0482Q15.9907 9.26419 17.1043 8.83598Q18.2496 8.39555 19.4997 8.39555L19.4997 9.35388L19.4997 8.39555L19.4997 9.35388L19.4997 8.39555Q20.7498 8.39555 21.8951 8.83598Q23.0087 9.26419 23.8712 10.0482Q24.7436 10.8412 25.2251 11.876Q25.7289 12.9585 25.7289 14.1452L24.7705 14.1452L25.7289 14.1452L24.7705 14.1452L25.7289 14.1452Q25.7289 15.6964 24.8899 17.0305Q24.0884 18.3048 22.7224 19.0673L22.2553 18.2305L22.7231 19.0669L22.2553 18.2305L22.7231 19.0669Q21.6767 19.6523 21.0846 20.3414Q20.4581 21.0706 20.4581 21.8129L19.4997 21.8129L20.4581 21.8129L20.4581 23.2497L18.5414 23.2497L18.5414 21.8129L18.5414 21.8129Q18.5414 20.3603 19.6308 19.0923Q20.4444 18.1454 21.7875 17.3942L21.7875 17.3942L21.7882 17.3938Q22.7267 16.8699 23.2674 16.0101Q23.8122 15.1438 23.8122 14.1452L23.8122 14.1452L23.8122 14.1452Q23.8122 13.3826 23.4874 12.6847Q23.1687 11.9999 22.582 11.4665Q21.9854 10.9242 21.2072 10.6249Q20.394 10.3122 19.4997 10.3122L19.4997 10.3122L19.4997 10.3122Q18.6055 10.3122 17.7922 10.6249Q17.0141 10.9242 16.4175 11.4665Q15.8307 11.9999 15.512 12.6847Q15.1872 13.3826 15.1872 14.1452L13.2705 14.1452Z"></path><rect x="18.5" y="25" width="2" height="2"   fill="#FFFFFF" ></rect><defs><radialGradient id="linear_fill_3_21" cx="0" cy="0" r="1" gradientTransform="translate(15.5 15.5) rotate(-180) scale(38.20192, 38.20192)" gradientUnits="userSpaceOnUse"><stop offset="0" stop-color="#43CF7C"  /><stop offset="1" stop-color="#A5D63F" stop-opacity="0.01" /></radialGradient><filter id="filter_3_21" x="0" y="0" width="39" height="39" filterUnits="userSpaceOnUse" color-interpolation-filters="sRGB"><feFlood flood-opacity="0" result="feFloodId_3_21"/><feColorMatrix in="SourceAlpha" type="matrix" values="0 0 0 0 0 0 0 0 0 0 0 0 0 0 0 0 0 0 127 0" result="hardAlpha_3_21"/><feOffset dx="0" dy="2"/><feGaussianBlur stdDeviation="2"/><feComposite in2="hardAlpha_3_21" operator="out"/><feColorMatrix type="matrix" values="0 0 0 0 0 0 0 0 0 0 0 0 0 0 0 0 0 0 0.25 0"/><feBlend mode="normal" in2="feFloodId_3_21" result="dropShadow_1_3_21"/><feBlend mode="normal" in="SourceGraphic" in2="dropShadow_1_3_21" result="shape_3_21"/><feBlend mode="normal" in="SourceGraphic" in2="feFloodId_3_21" result="shape_3_21"/><feColorMatrix in="SourceAlpha" type="matrix" values="0 0 0 0 0 0 0 0 0 0 0 0 0 0 0 0 0 0 127 0" result="hardAlpha_3_21"/><feOffset dx="0" dy="2"/><feGaussianBlur stdDeviation="2"/><feComposite in2="hardAlpha_3_21" operator="arithmetic" k2="-1" k3="1"/><feColorMatrix type="matrix" values="0 0 0 0 0.8980392156862745 0 0 0 0 0.8980392156862745 0 0 0 0 0.8980392156862745 0 0 0 0.25 0"/><feBlend mode="normal" in2="shape_3_21" result="innerShadow_0_3_21" /></filter></defs></svg>