<svg xmlns="http://www.w3.org/2000/svg" xmlns:xlink="http://www.w3.org/1999/xlink" width="37.494384765625" height="40.2740478515625" viewBox="0 0 37.494384765625 40.2740478515625" fill="none"><g filter="url(#filter_4_1238)"><path     fill="#E5E5E5"  d="M25.4785 7.13951C27.9311 8.43727 29.9665 10.4234 31.3241 12.8691C32.9384 15.7772 33.4944 19.155 32.8974 22.427C32.3004 25.6991 30.5874 28.6629 28.0501 30.8135C25.5129 32.9641 22.3084 34.1684 18.9828 34.2212C15.6571 34.2741 12.4161 33.1721 9.8118 31.1032C7.20753 29.0342 5.4012 26.1263 4.70059 22.8749C3.99998 19.6234 4.44844 16.2297 5.96956 13.2718C7.2473 10.7872 9.21549 8.73933 11.6217 7.36437C12.38 6.93105 13.3239 7.3033 13.6709 8.10479L13.6709 8.10479C14.0179 8.90629 13.6437 9.82721 12.8988 10.2833C11.1547 11.3512 9.72667 12.8818 8.78224 14.7183C7.59577 17.0254 7.24597 19.6725 7.79245 22.2087C8.33892 24.7448 9.74786 27.013 11.7792 28.6267C13.8105 30.2405 16.3386 31.1 18.9326 31.0588C21.5266 31.0176 24.026 30.0783 26.0051 28.4008C27.9841 26.7233 29.3203 24.4115 29.786 21.8593C30.2516 19.3071 29.818 16.6724 28.5588 14.4042C27.5578 12.6009 26.0843 11.1179 24.3102 10.106C23.5515 9.67325 23.1412 8.76138 23.4626 7.94927L23.4626 7.94927C23.7839 7.13716 24.7065 6.73103 25.4785 7.13951Z"></path></g><g filter="url(#filter_4_1239)"><rect  x="16.611572265625" y="2" width="3.833740234375" height="15.3348388671875" rx="1.9168701171875"    fill="#E5E5E5" ></rect></g><defs><filter id="filter_4_1238" x="0" y="4.7310791015625" width="37.494384765625" height="35.54296875" filterUnits="userSpaceOnUse" color-interpolation-filters="sRGB"><feFlood flood-opacity="0" result="feFloodId_4_1238"/><feColorMatrix in="SourceAlpha" type="matrix" values="0 0 0 0 0 0 0 0 0 0 0 0 0 0 0 0 0 0 127 0" result="hardAlpha_4_1238"/><feOffset dx="0" dy="2"/><feGaussianBlur stdDeviation="2"/><feComposite in2="hardAlpha_4_1238" operator="out"/><feColorMatrix type="matrix" values="0 0 0 0 0 0 0 0 0 0 0 0 0 0 0 0 0 0 0.25 0"/><feBlend mode="normal" in2="feFloodId_4_1238" result="dropShadow_1_4_1238"/><feBlend mode="normal" in="SourceGraphic" in2="dropShadow_1_4_1238" result="shape_4_1238"/><feBlend mode="normal" in="SourceGraphic" in2="feFloodId_4_1238" result="shape_4_1238"/><feColorMatrix in="SourceAlpha" type="matrix" values="0 0 0 0 0 0 0 0 0 0 0 0 0 0 0 0 0 0 127 0" result="hardAlpha_4_1238"/><feOffset dx="0" dy="2"/><feGaussianBlur stdDeviation="2"/><feComposite in2="hardAlpha_4_1238" operator="arithmetic" k2="-1" k3="1"/><feColorMatrix type="matrix" values="0 0 0 0 0 0 0 0 0 0 0 0 0 0 0 0 0 0 0.25 0"/><feBlend mode="normal" in2="shape_4_1238" result="innerShadow_0_4_1238" /></filter><filter id="filter_4_1239" x="12.611572265625" y="0" width="11.833740234375" height="23.3348388671875" filterUnits="userSpaceOnUse" color-interpolation-filters="sRGB"><feFlood flood-opacity="0" result="feFloodId_4_1239"/><feColorMatrix in="SourceAlpha" type="matrix" values="0 0 0 0 0 0 0 0 0 0 0 0 0 0 0 0 0 0 127 0" result="hardAlpha_4_1239"/><feOffset dx="0" dy="2"/><feGaussianBlur stdDeviation="2"/><feComposite in2="hardAlpha_4_1239" operator="out"/><feColorMatrix type="matrix" values="0 0 0 0 0 0 0 0 0 0 0 0 0 0 0 0 0 0 0.25 0"/><feBlend mode="normal" in2="feFloodId_4_1239" result="dropShadow_1_4_1239"/><feBlend mode="normal" in="SourceGraphic" in2="dropShadow_1_4_1239" result="shape_4_1239"/><feBlend mode="normal" in="SourceGraphic" in2="feFloodId_4_1239" result="shape_4_1239"/><feColorMatrix in="SourceAlpha" type="matrix" values="0 0 0 0 0 0 0 0 0 0 0 0 0 0 0 0 0 0 127 0" result="hardAlpha_4_1239"/><feOffset dx="0" dy="2"/><feGaussianBlur stdDeviation="2"/><feComposite in2="hardAlpha_4_1239" operator="arithmetic" k2="-1" k3="1"/><feColorMatrix type="matrix" values="0 0 0 0 0 0 0 0 0 0 0 0 0 0 0 0 0 0 0.25 0"/><feBlend mode="normal" in2="shape_4_1239" result="innerShadow_0_4_1239" /></filter></defs></svg>